<svg xmlns="http://www.w3.org/2000/svg" version="1.1" xmlns:xlink="http://www.w3.org/1999/xlink" xmlns:svgjs="http://svgjs.dev/svgjs" width="1000" height="1395" viewBox="0 0 1000 1395"><g transform="matrix(1,0,0,1,-0.7259887005648125,0.5647773279351895)"><svg viewBox="0 0 177 247" data-background-color="#1b4571" preserveAspectRatio="xMidYMid meet" height="1395" width="1000" xmlns="http://www.w3.org/2000/svg" xmlns:xlink="http://www.w3.org/1999/xlink"><g id="tight-bounds" transform="matrix(1,0,0,1,0.12849999999997408,-0.09999999999999432)"><svg viewBox="0 0 176.7426756923077 247.2" height="247.2" width="176.7426756923077"><g><svg></svg></g><g><svg viewBox="0 0 176.7426756923077 247.2" height="247.2" width="176.7426756923077"><g transform="matrix(1,0,0,1,0,47.215199999999996)"><svg viewBox="0 0 176.7426756923077 152.7696" height="152.7696" width="176.7426756923077"><g><svg viewBox="0 0 176.7426756923077 152.7696" height="152.7696" width="176.7426756923077"><g><svg viewBox="0 0 176.7426756923077 152.7696" height="152.7696" width="176.7426756923077"><g><svg viewBox="0 0 176.7426756923077 152.7696" height="152.7696" width="176.7426756923077"><g><svg viewBox="0 0 176.7426756923077 152.7696" height="152.7696" width="176.7426756923077"><g><svg viewBox="0 0 176.7426756923077 152.7696" height="152.7696" width="176.7426756923077"><g transform="matrix(1,0,0,1,0,0)"><svg width="176.7426756923077" viewBox="5 -32.5 37.599998474121094 32.5" height="152.7696" data-palette-color="#ffffff"><path d="M8.5-15L8.5 0 5 0 5-32.5 18.75-32.5 18.75-29.5 8.5-29.5 8.5-18 16.75-18 16.75-15 8.5-15ZM29.25-15L29.25 0 25.75 0 25.75-32.5 29.25-32.5 29.25-18 39.1-18 39.1-32.5 42.6-32.5 42.6 0 39.1 0 39.1-15 29.25-15Z" opacity="1" transform="matrix(1,0,0,1,0,0)" fill="#ffffff" class="undefined-text-0" data-fill-palette-color="primary" id="text-0"></path></svg></g></svg></g></svg></g></svg></g><g></g></svg></g></svg></g></svg></g><path d="M0 41.215L0 1 176.743 1 176.743 41.215 162.966 41.215 162.966 14.777 13.777 14.777 13.777 41.215 0 41.215M0 205.985L0 246.2 176.743 246.2 176.743 205.985 162.966 205.985 162.966 232.423 13.777 232.423 13.777 205.985 0 205.985" fill="#ffffff" stroke="transparent" data-fill-palette-color="primary"></path></svg></g><defs></defs></svg><rect width="176.7426756923077" height="247.2" fill="none" stroke="none" visibility="hidden"></rect></g></svg></g></svg>