<svg xmlns="http://www.w3.org/2000/svg" version="1.1" xmlns:xlink="http://www.w3.org/1999/xlink" xmlns:svgjs="http://svgjs.dev/svgjs" width="1000" height="1000" viewBox="0 0 1000 1000"><rect width="1000" height="1000" fill="#ffffff"></rect><g transform="matrix(0.7,0,0,0.7,150.61876319420332,146.08680161943317)"><svg viewBox="0 0 244 247" data-background-color="#ffffff" preserveAspectRatio="xMidYMid meet" height="1012" width="1000" xmlns="http://www.w3.org/2000/svg" xmlns:xlink="http://www.w3.org/1999/xlink"><g id="tight-bounds" transform="matrix(1,0,0,1,-0.21568317055087505,-0.09999999999999432)"><svg viewBox="0 0 244.43135999999998 247.2" height="247.2" width="244.43135999999998"><g><svg></svg></g><g><svg viewBox="0 0 244.43135999999998 247.2" height="247.2" width="244.43135999999998"><g transform="matrix(1,0,0,1,0,93.56287050051777)"><svg viewBox="0 0 244.43135999999998 60.07425899896444" height="60.07425899896444" width="244.43135999999998"><g><svg viewBox="0 0 244.43135999999998 60.07425899896444" height="60.07425899896444" width="244.43135999999998"><g><svg viewBox="0 0 244.43135999999998 60.07425899896444" height="60.07425899896444" width="244.43135999999998"><g><svg viewBox="0 0 244.43135999999998 60.07425899896444" height="60.07425899896444" width="244.43135999999998"><g><svg viewBox="0 0 244.43135999999998 60.07425899896444" height="60.07425899896444" width="244.43135999999998"><g><svg viewBox="0 0 244.43135999999998 60.07425899896444" height="60.07425899896444" width="244.43135999999998"><g transform="matrix(1,0,0,1,0,0)"><svg width="244.43135999999998" viewBox="4.349999904632568 -35.25 144.83999633789062 35.599998474121094" height="60.07425899896444" data-palette-color="#4d7e3e"><path d="M8.4 0L4.35 0 4.35-35.25 26.15-35.25 26.15-31.8 8.4-31.8 8.4-19.65 25.15-19.65 25.15-16.2 8.4-16.2 8.4 0ZM35.65 0L31.6 0 31.6-24.35 35.65-24.35 35.65 0ZM31.2-30.35L31.2-34.9 36.1-34.9 36.1-30.35 31.2-30.35ZM53.9-2.9Q55-2.9 56.1-3.05L56.1-3.05 55.9 0.15Q54.75 0.35 53.4 0.35L53.4 0.35Q49 0.35 46.77-1.95 44.55-4.25 44.55-8.35L44.55-8.35 44.55-21.15 39.8-21.15 39.8-24.35 44.55-24.35 44.55-31.75 48.6-31.75 48.6-24.35 55.5-24.35 55.5-21.15 48.6-21.15 48.6-8.65Q48.6-2.9 53.9-2.9L53.9-2.9ZM85.94-19.65L85.94-35.25 89.99-35.25 89.99 0 85.94 0 85.94-16.15 64.84-16.15 64.84 0 60.79 0 60.79-35.25 64.84-35.25 64.84-19.65 85.94-19.65ZM114.54-24.35L118.59-24.35 118.59 0 114.64 0 114.64-4.15Q113.49-1.95 111.42-0.8 109.34 0.35 106.74 0.35L106.74 0.35Q102.39 0.35 100.19-2.08 97.99-4.5 97.99-9.25L97.99-9.25 97.99-24.35 102.04-24.35 102.04-9.35Q102.04-6.1 103.34-4.58 104.64-3.05 107.44-3.05L107.44-3.05Q110.64-3.05 112.59-5.13 114.54-7.2 114.54-10.6L114.54-10.6 114.54-24.35ZM138.39-24.95Q141.59-24.95 144.04-23.4 146.49-21.85 147.84-19 149.19-16.15 149.19-12.4L149.19-12.4Q149.19-8.6 147.84-5.73 146.49-2.85 144.04-1.25 141.59 0.35 138.39 0.35L138.39 0.35Q135.54 0.35 133.41-0.9 131.29-2.15 130.19-4.45L130.19-4.45 130.19 0 126.14 0 126.14-35.25 130.19-35.25 130.19-20.15Q131.29-22.45 133.41-23.7 135.54-24.95 138.39-24.95L138.39-24.95ZM137.59-3Q141.14-3 143.09-5.48 145.04-7.95 145.04-12.4L145.04-12.4Q145.04-16.75 143.09-19.15 141.14-21.55 137.59-21.55L137.59-21.55Q134.04-21.55 132.11-19.15 130.19-16.75 130.19-12.3L130.19-12.3Q130.19-7.85 132.11-5.43 134.04-3 137.59-3L137.59-3Z" opacity="1" transform="matrix(1,0,0,1,0,0)" fill="#000000" class="undefined-text-0" data-fill-palette-color="primary" id="text-0"></path></svg></g></svg></g></svg></g></svg></g><g></g></svg></g></svg></g></svg></g><path d="M0 87.563L0 1 244.431 1 244.431 87.563 239.014 87.563 239.014 6.418 5.418 6.418 5.418 87.563 0 87.563M0 159.637L0 246.2 244.431 246.2 244.431 159.637 239.014 159.637 239.014 240.782 5.418 240.782 5.418 159.637 0 159.637" fill="#000000" stroke="transparent" data-fill-palette-color="primary"></path></svg></g><defs></defs></svg><rect width="244.43135999999998" height="247.2" fill="none" stroke="none" visibility="hidden"></rect></g></svg></g></svg>