<svg xmlns="http://www.w3.org/2000/svg" version="1.1" xmlns:xlink="http://www.w3.org/1999/xlink" xmlns:svgjs="http://svgjs.dev/svgjs" width="1000" height="1000" viewBox="0 0 1000 1000"><rect width="1000" height="1000" fill="#000000"></rect><g transform="matrix(0.7,0,0,0.7,149.57575757575756,282.1265587044535)"><svg viewBox="0 0 396 247" data-background-color="#ffffff" preserveAspectRatio="xMidYMid meet" height="623" width="1000" xmlns="http://www.w3.org/2000/svg" xmlns:xlink="http://www.w3.org/1999/xlink"><g id="tight-bounds" transform="matrix(1,0,0,1,0.2400000000000091,-0.09999999999999432)"><svg viewBox="0 0 395.52 247.2" height="247.2" width="395.52"><g><svg></svg></g><g><svg viewBox="0 0 395.52 247.2" height="247.2" width="395.52"><g transform="matrix(1,0,0,1,75.54432000000001,70.26818754366886)"><svg viewBox="0 0 244.43135999999996 106.66362491266227" height="106.66362491266227" width="244.43135999999996"><g><svg viewBox="0 0 244.43135999999996 106.66362491266227" height="106.66362491266227" width="244.43135999999996"><g><svg viewBox="0 0 244.43135999999996 106.66362491266227" height="106.66362491266227" width="244.43135999999996"><g><svg viewBox="0 0 244.43135999999996 106.66362491266227" height="106.66362491266227" width="244.43135999999996"><g><svg viewBox="0 0 244.43135999999996 106.66362491266227" height="106.66362491266227" width="244.43135999999996"><g><svg viewBox="0 0 244.43135999999996 64.3945583556012" height="64.3945583556012" width="244.43135999999996"><g transform="matrix(1,0,0,1,0,0)"><svg width="244.43135999999996" viewBox="3.6500000953674316 -38.150001525878906 145.94000244140625 38.45000076293945" height="64.3945583556012" data-palette-color="#096a2e"><path d="M8.7 0L3.65 0 3.65-29.15Q3.65-31.35 4.33-32.85 5-34.35 6.1-35.23 7.2-36.1 8.58-36.48 9.95-36.85 11.3-36.85L11.3-36.85Q13.35-36.8 15.95-36.77 18.55-36.75 21.38-36.65 24.2-36.55 26.85-36.3L26.85-36.3 26.85-32.2 12.55-32.2Q10.7-32.2 9.7-31.2 8.7-30.2 8.7-28.3L8.7-28.3 8.7-19.75 24.6-19.45 24.6-15.55 8.7-15.25 8.7 0ZM36.5-31.25L32.8-31.25Q31.9-31.25 31.9-32.1L31.9-32.1 31.9-36.3Q31.9-37.2 32.8-37.2L32.8-37.2 36.5-37.2Q36.9-37.2 37.1-36.95 37.3-36.7 37.3-36.3L37.3-36.3 37.3-32.1Q37.3-31.25 36.5-31.25L36.5-31.25ZM37.1 0L32.1 0 32.1-26.75 37.1-26.75 37.1 0ZM57.39 0L53.34 0Q50.64 0 48.87-0.88 47.09-1.75 46.27-3.7 45.45-5.65 45.49-8.9L45.49-8.9 45.7-22.65 41.45-22.65 41.45-25.9 45.8-26.75 46.55-34.25 50.49-34.25 50.49-26.75 57.75-26.75 57.75-22.65 50.49-22.65 50.49-8.95Q50.49-7.4 50.8-6.45 51.09-5.5 51.64-5 52.2-4.5 52.84-4.28 53.49-4.05 54.09-4L54.09-4 57.39-3.7 57.39 0ZM67.99 0L62.94 0 62.94-36.85 67.99-36.85 67.99-20.3 85.04-20.3 85.04-36.85 90.04-36.85 90.04 0 85.04 0 85.04-15.8 67.99-15.8 67.99 0ZM105.04 0.3L105.04 0.3Q101.29 0.3 99.22-1.73 97.14-3.75 97.14-7.9L97.14-7.9 97.14-26.75 102.14-26.75 102.14-9.25Q102.14-6.25 103.52-5.2 104.89-4.15 107.39-4.15L107.39-4.15Q109.39-4.15 111.22-4.78 113.04-5.4 114.79-6.5L114.79-6.5 114.79-26.75 119.79-26.75 119.79 0 115.79 0 114.79-2.85Q112.84-1.6 110.31-0.65 107.79 0.3 105.04 0.3ZM140.29 0.3L140.29 0.3Q138.44 0.3 136.86-0.15 135.29-0.6 134.01-1.28 132.74-1.95 131.69-2.65L131.69-2.65 130.79 0 126.69 0 126.69-38.15 131.69-38.15 131.69-24.5Q133.54-25.5 135.81-26.3 138.09-27.1 140.04-27.1L140.04-27.1Q143.34-27.1 145.44-25.73 147.54-24.35 148.56-21.3 149.59-18.25 149.59-13.15L149.59-13.15Q149.59-8.9 148.64-5.88 147.69-2.85 145.64-1.28 143.59 0.3 140.29 0.3ZM138.54-3.85L138.54-3.85Q140.49-3.85 141.81-4.83 143.14-5.8 143.86-7.93 144.59-10.05 144.59-13.4L144.59-13.4Q144.59-17.5 143.79-19.55 142.99-21.6 141.64-22.3 140.29-23 138.54-23L138.54-23Q136.54-23 134.91-22.43 133.29-21.85 131.69-21L131.69-21 131.69-5.75Q133.04-5.05 134.74-4.45 136.44-3.85 138.54-3.85Z" opacity="1" transform="matrix(1,0,0,1,0,0)" fill="#ffffff" class="undefined-text-0" data-fill-palette-color="primary" id="text-0"></path></svg></g></svg></g><g transform="matrix(1,0,0,1,0,79.59656811395811)"><svg viewBox="0 0 244.43135999999996 27.067056798704165" height="27.067056798704165" width="244.43135999999996"><g transform="matrix(1,0,0,1,0,0)"><svg width="244.43135999999996" viewBox="4.650000095367432 -37 339.52001953125 37.599998474121094" height="27.067056798704165" data-palette-color="#096a2e"><path d="M31.85 0L31.85-29.4 31.6-29.4 28.65-23.55 20.3-8.35 11.95-23.55 9-29.4 8.75-29.4 8.75 0 4.65 0 4.65-34.9 10.25-34.9 20.25-16.1 20.5-16.1 30.55-34.9 35.95-34.9 35.95 0 31.85 0ZM65.85 0L63.6 0Q61.35 0 60.37-1.2 59.4-2.4 59.15-4.2L59.15-4.2 58.9-4.2Q58.05-1.8 56.1-0.6 54.15 0.6 51.45 0.6L51.45 0.6Q47.35 0.6 45.07-1.5 42.8-3.6 42.8-7.2L42.8-7.2Q42.8-10.85 45.47-12.8 48.15-14.75 53.8-14.75L53.8-14.75 58.9-14.75 58.9-17.3Q58.9-20.05 57.4-21.5 55.9-22.95 52.8-22.95L52.8-22.95Q50.45-22.95 48.87-21.9 47.3-20.85 46.25-19.1L46.25-19.1 43.85-21.35Q44.9-23.45 47.2-24.93 49.5-26.4 53-26.4L53-26.4Q57.7-26.4 60.3-24.1 62.9-21.8 62.9-17.7L62.9-17.7 62.9-3.5 65.85-3.5 65.85 0ZM52.1-2.8L52.1-2.8Q53.6-2.8 54.85-3.15 56.1-3.5 57-4.15 57.9-4.8 58.4-5.65 58.9-6.5 58.9-7.5L58.9-7.5 58.9-11.75 53.6-11.75Q50.15-11.75 48.57-10.75 47-9.75 47-7.85L47-7.85 47-6.8Q47-4.9 48.37-3.85 49.75-2.8 52.1-2.8ZM71.55 0L71.55-37 75.55-37 75.55-13.55 75.75-13.55 79.7-17.95 87-25.8 91.85-25.8 82.3-15.6 92.8 0 87.95 0 79.4-13.15 75.55-9.2 75.55 0 71.55 0ZM106.74 0.6L106.74 0.6Q104.09 0.6 101.97-0.35 99.84-1.3 98.32-3.08 96.79-4.85 95.97-7.33 95.14-9.8 95.14-12.9L95.14-12.9Q95.14-15.95 95.97-18.45 96.79-20.95 98.32-22.73 99.84-24.5 101.97-25.45 104.09-26.4 106.74-26.4L106.74-26.4Q109.34-26.4 111.39-25.45 113.44-24.5 114.89-22.83 116.34-21.15 117.12-18.85 117.89-16.55 117.89-13.8L117.89-13.8 117.89-11.9 99.34-11.9 99.34-10.7Q99.34-9.05 99.87-7.63 100.39-6.2 101.37-5.15 102.34-4.1 103.77-3.5 105.19-2.9 106.99-2.9L106.99-2.9Q109.44-2.9 111.27-4.05 113.09-5.2 114.09-7.35L114.09-7.35 116.94-5.3Q115.69-2.65 113.04-1.03 110.39 0.6 106.74 0.6ZM106.74-23.05L106.74-23.05Q105.09-23.05 103.74-22.48 102.39-21.9 101.42-20.85 100.44-19.8 99.89-18.38 99.34-16.95 99.34-15.25L99.34-15.25 99.34-14.9 113.59-14.9 113.59-15.45Q113.59-18.9 111.72-20.98 109.84-23.05 106.74-23.05ZM148.89 0L144.69 0 144.69-13.8 132.69-34.9 137.49-34.9 146.79-18.1 146.94-18.1 156.24-34.9 161.04-34.9 148.89-13.95 148.89 0ZM173.19 0.6L173.19 0.6Q170.59 0.6 168.44-0.35 166.29-1.3 164.76-3.08 163.24-4.85 162.39-7.33 161.54-9.8 161.54-12.9L161.54-12.9Q161.54-15.95 162.39-18.45 163.24-20.95 164.76-22.73 166.29-24.5 168.44-25.45 170.59-26.4 173.19-26.4L173.19-26.4Q175.79-26.4 177.91-25.45 180.04-24.5 181.59-22.73 183.14-20.95 183.99-18.45 184.84-15.95 184.84-12.9L184.84-12.9Q184.84-9.8 183.99-7.33 183.14-4.85 181.59-3.08 180.04-1.3 177.91-0.35 175.79 0.6 173.19 0.6ZM173.19-2.95L173.19-2.95Q176.44-2.95 178.49-4.95 180.54-6.95 180.54-11.05L180.54-11.05 180.54-14.75Q180.54-18.85 178.49-20.85 176.44-22.85 173.19-22.85L173.19-22.85Q169.94-22.85 167.89-20.85 165.84-18.85 165.84-14.75L165.84-14.75 165.84-11.05Q165.84-6.95 167.89-4.95 169.94-2.95 173.19-2.95ZM207.33 0L207.33-4.2 207.13-4.2Q206.73-3.3 206.16-2.43 205.58-1.55 204.73-0.88 203.88-0.2 202.68 0.2 201.48 0.6 199.88 0.6L199.88 0.6Q195.88 0.6 193.53-1.98 191.18-4.55 191.18-9.25L191.18-9.25 191.18-25.8 195.18-25.8 195.18-9.95Q195.18-3 201.08-3L201.08-3Q202.28-3 203.41-3.3 204.53-3.6 205.41-4.2 206.28-4.8 206.81-5.73 207.33-6.65 207.33-7.95L207.33-7.95 207.33-25.8 211.33-25.8 211.33 0 207.33 0ZM223.83 0L219.83 0 219.83-25.8 223.83-25.8 223.83-21.05 224.08-21.05Q224.78-22.9 226.58-24.35 228.38-25.8 231.53-25.8L231.53-25.8 233.08-25.8 233.08-21.8 230.73-21.8Q227.48-21.8 225.66-20.58 223.83-19.35 223.83-17.5L223.83-17.5 223.83 0ZM254.58 0L250.38 0 250.38-34.9 264.28-34.9Q268.98-34.9 271.5-32.23 274.03-29.55 274.03-24.9L274.03-24.9Q274.03-20.25 271.5-17.57 268.98-14.9 264.28-14.9L264.28-14.9 254.58-14.9 254.58 0ZM254.58-31.2L254.58-18.6 264.28-18.6Q266.78-18.6 268.15-19.9 269.53-21.2 269.53-23.6L269.53-23.6 269.53-26.2Q269.53-28.6 268.15-29.9 266.78-31.2 264.28-31.2L264.28-31.2 254.58-31.2ZM300.77 0L298.52 0Q296.27 0 295.3-1.2 294.32-2.4 294.07-4.2L294.07-4.2 293.82-4.2Q292.97-1.8 291.02-0.6 289.07 0.6 286.37 0.6L286.37 0.6Q282.27 0.6 280-1.5 277.72-3.6 277.72-7.2L277.72-7.2Q277.72-10.85 280.4-12.8 283.07-14.75 288.72-14.75L288.72-14.75 293.82-14.75 293.82-17.3Q293.82-20.05 292.32-21.5 290.82-22.95 287.72-22.95L287.72-22.95Q285.37-22.95 283.8-21.9 282.22-20.85 281.17-19.1L281.17-19.1 278.77-21.35Q279.82-23.45 282.12-24.93 284.42-26.4 287.92-26.4L287.92-26.4Q292.62-26.4 295.22-24.1 297.82-21.8 297.82-17.7L297.82-17.7 297.82-3.5 300.77-3.5 300.77 0ZM287.02-2.8L287.02-2.8Q288.52-2.8 289.77-3.15 291.02-3.5 291.92-4.15 292.82-4.8 293.32-5.65 293.82-6.5 293.82-7.5L293.82-7.5 293.82-11.75 288.52-11.75Q285.07-11.75 283.5-10.75 281.92-9.75 281.92-7.85L281.92-7.85 281.92-6.8Q281.92-4.9 283.3-3.85 284.67-2.8 287.02-2.8ZM317.17 0L312.17 0Q310.07 0 309-1.18 307.92-2.35 307.92-4.25L307.92-4.25 307.92-22.3 303.67-22.3 303.67-25.8 306.07-25.8Q307.37-25.8 307.85-26.33 308.32-26.85 308.32-28.15L308.32-28.15 308.32-32.95 311.92-32.95 311.92-25.8 317.57-25.8 317.57-22.3 311.92-22.3 311.92-3.5 317.17-3.5 317.17 0ZM324.02 0L324.02-37 328.02-37 328.02-21.6 328.22-21.6Q329.17-23.8 330.89-25.1 332.62-26.4 335.52-26.4L335.52-26.4Q339.52-26.4 341.84-23.83 344.17-21.25 344.17-16.55L344.17-16.55 344.17 0 340.17 0 340.17-15.85Q340.17-22.8 334.32-22.8L334.32-22.8Q333.12-22.8 331.99-22.5 330.87-22.2 329.97-21.6 329.07-21 328.54-20.08 328.02-19.15 328.02-17.9L328.02-17.9 328.02 0 324.02 0Z" opacity="1" transform="matrix(1,0,0,1,0,0)" fill="#ffffff" class="undefined-text-1" data-fill-palette-color="secondary" id="text-1"></path></svg></g></svg></g></svg></g></svg></g></svg></g></svg></g></svg></g><path d="M159.693 64.268L159.693 6.338 394.217 6.338 394.217 240.862 159.693 240.862 159.693 182.932 165.5 182.932 165.5 235.055 388.409 235.055 388.409 12.145 165.5 12.145 165.5 64.268Z" fill="#ffffff" stroke="transparent" data-fill-palette-color="primary"></path></svg></g><defs></defs></svg><rect width="395.52" height="247.2" fill="none" stroke="none" visibility="hidden"></rect></g></svg></g></svg>